<svg width="2496" height="460" viewBox="0 0 2496 460" fill="none" xmlns="http://www.w3.org/2000/svg">
<g filter="url(#filter0_d_3_4)">
<path d="M22 412C57.5002 351.441 158.571 261.646 278.854 386.941C330.017 315.94 476.82 197.746 654.739 292.97C671.967 231.888 741.506 119.123 881.836 156.711C990 185.684 1000.08 266.345 1007.13 325.86C1036.11 315.679 1036.89 321.161 1057.25 325.86C1072.39 281.484 1130.23 198.059 1240.49 219.359C1274.43 146.27 1381.76 22.0196 1539.63 109.726C1653.97 173.243 1623.16 345.698 1566.26 408.867" stroke="white" stroke-width="10" stroke-linecap="round" stroke-linejoin="round"/>
</g>
<g filter="url(#filter1_d_3_4)">
<path d="M1755.77 408.867C1756.81 360.316 1774.56 253.189 1837.21 213.094C1852.87 153.057 1919.59 42.6932 2061.17 81.5346C2106.59 37.1593 2221.86 -34.6764 2319.59 32.9828C2417.32 100.642 2419.83 216.749 2408.87 266.345C2420.35 254.859 2448.65 233.455 2469.95 239.719" stroke="white" stroke-width="10" stroke-linecap="round" stroke-linejoin="round"/>
</g>
<defs>
<filter id="filter0_d_3_4" x="-0.000854492" y="74.5598" width="1643.17" height="385.441" filterUnits="userSpaceOnUse" color-interpolation-filters="sRGB">
<feFlood flood-opacity="0" result="BackgroundImageFix"/>
<feColorMatrix in="SourceAlpha" type="matrix" values="0 0 0 0 0 0 0 0 0 0 0 0 0 0 0 0 0 0 127 0" result="hardAlpha"/>
<feOffset dx="2" dy="24"/>
<feGaussianBlur stdDeviation="9.5"/>
<feColorMatrix type="matrix" values="0 0 0 0 0 0 0 0 0 0 0 0 0 0 0 0 0 0 0.3 0"/>
<feBlend mode="normal" in2="BackgroundImageFix" result="effect1_dropShadow_3_4"/>
<feBlend mode="normal" in="SourceGraphic" in2="effect1_dropShadow_3_4" result="shape"/>
</filter>
<filter id="filter1_d_3_4" x="1733.77" y="0.238525" width="762.182" height="456.629" filterUnits="userSpaceOnUse" color-interpolation-filters="sRGB">
<feFlood flood-opacity="0" result="BackgroundImageFix"/>
<feColorMatrix in="SourceAlpha" type="matrix" values="0 0 0 0 0 0 0 0 0 0 0 0 0 0 0 0 0 0 127 0" result="hardAlpha"/>
<feOffset dx="2" dy="24"/>
<feGaussianBlur stdDeviation="9.5"/>
<feColorMatrix type="matrix" values="0 0 0 0 0 0 0 0 0 0 0 0 0 0 0 0 0 0 0.3 0"/>
<feBlend mode="normal" in2="BackgroundImageFix" result="effect1_dropShadow_3_4"/>
<feBlend mode="normal" in="SourceGraphic" in2="effect1_dropShadow_3_4" result="shape"/>
</filter>
</defs>
</svg>
