<svg width="402" height="923" viewBox="0 0 402 923" fill="none" xmlns="http://www.w3.org/2000/svg">
<path d="M275.694 795.792V908.557" stroke="white" stroke-width="10" stroke-linecap="round"/>
<path d="M208.348 740.975L208.348 917.954" stroke="white" stroke-width="10" stroke-linecap="round"/>
<path d="M147.267 720.615V838.078" stroke="white" stroke-width="10" stroke-linecap="round"/>
<path d="M150.296 566.609L144.918 539.72H275.694L269.784 567C267.292 578.5 257.118 586.706 245.351 586.706H174.81C162.893 586.706 152.633 578.294 150.296 566.609Z" fill="white" stroke="black" stroke-width="10"/>
<path d="M6 498C22.8649 401.512 85.0541 339.796 114.041 321L136 498H6Z" fill="white" stroke="black" stroke-width="10"/>
<path d="M396 497C380.173 400.512 321.811 338.796 294.608 320L274 497H396Z" fill="white" stroke="black" stroke-width="10"/>
<path d="M104.627 666.912C102.647 668.837 102.602 672.002 104.527 673.982C106.452 675.962 109.618 676.007 111.598 674.082L104.627 666.912ZM161.01 612.095L104.627 666.912L111.598 674.082L167.98 619.265L161.01 612.095Z" fill="white"/>
<path d="M287.821 661.503C289.773 663.455 292.939 663.455 294.892 661.503C296.844 659.55 296.844 656.384 294.892 654.432L287.821 661.503ZM253.365 627.047L287.821 661.503L294.892 654.432L260.436 619.975L253.365 627.047Z" fill="white"/>
<path d="M195.819 620.379L206.782 678.328L220.878 632.908" stroke="white" stroke-width="8" stroke-linecap="round"/>
<path d="M105.275 311.84C114.046 148.957 174.71 41.412 203.945 8C239.184 46.8936 286.932 162.846 301.832 311.84C318.355 477.073 297.916 525.624 288.519 540.503H125.636C115.194 532.15 96.5047 474.723 105.275 311.84Z" fill="white" stroke="black" stroke-width="10"/>
<path d="M141.002 144.258C169.977 164.619 231.058 168.064 265.514 144.258" stroke="black" stroke-width="10"/>
<circle cx="205.912" cy="311.84" r="58.9122" stroke="black" stroke-width="20"/>
</svg>
